<svg width="900" height="120" xmlns="http://www.w3.org/2000/svg" version="1.1">

 <g>
  <title>Layer 1</title>
  <path id="svg_1" fill="#191919" d="m0,111.24001l13.7,2.5c13.6,2.5 41,7.5 68.3,5c27.3,-2.5 54.7,-12.5 81.8,-17c27.2,-4.5 54.2,-3.5 81.4,-4c27.1,-0.5 54.5,-2.5 81.8,-2.5c27.3,0 54.7,2 82,6c27.3,4 54.7,10 82,14.5c27.3,4.5 54.7,7.5 82,5.5c27.3,-2 54.7,-9 81.8,-8.5c27.2,0.5 54.2,8.5 81.4,11c27.1,2.5 54.5,-0.5 81.8,-5.5c27.3,-5 54.7,-12 68.3,-15.5l13.7,-3.5l5,-77l-18.7,-5c-20.6,-3 -48,-11 -72.3,-14c-24.3,-3 -50.7,-5 -77.8,-1c-27.2,4 -52.2,8 -79.4,10.5c-27.1,2.5 -54.5,9.5 -83.8,15c-29.3,5.5 -51.7,8.5 -79,3c-27.3,-5.5 -57.7,-17.5 -85,-18c-27.3,-0.5 -52.7,4.5 -80,4.5c-27.3,0 -56.7,-5 -83.8,-10c-27.2,-5 -54.2,5 -81.4,5.5c-27.1,0.5 -54.5,-8.5 -81.8,-4.5c-27.3,4 -58.7,18 -75.3,21.5l-12.7,4.5l6,77z"/>
  <path id="svg_2" fill="#cfcabe" d="m0,127l13.7,0c13.6,0 41,0 68.3,0c27.3,0 54.7,0 81.8,0c27.2,0 54.2,0 81.4,0c27.1,0 54.5,0 81.8,0c27.3,0 54.7,0 82,0c27.3,0 54.7,0 82,0c27.3,0 54.7,0 82,0c27.3,0 54.7,0 81.8,0c27.2,0 54.2,0 81.4,0c27.1,0 54.5,0 81.8,0c27.3,0 54.7,0 68.3,0l13.7,0l0,-59l-13.7,3.5c-13.6,3.5 -41,10.5 -68.3,15.5c-27.3,5 -54.7,8 -81.8,5.5c-27.2,-2.5 -55.3,-7.5 -81.4,-11c-26.1,-3.5 -48.5,-4.5 -75.8,-2.5c-27.3,2 -60.7,10 -88,5.5c-27.3,-4.5 -54.7,-10.5 -82,-14.5c-27.3,-4 -54.7,-6 -82,-6c-27.3,0 -54.7,2 -81.8,2.5c-27.2,0.5 -54.2,-0.5 -81.4,4c-27.1,4.5 -54.5,14.5 -81.8,17c-27.3,2.5 -54.7,-2.5 -68.3,-5l-13.7,-2.5l0,47z"/>
 </g>
</svg>